<svg width="16" height="14" viewBox="0 0 16 14" fill="none" xmlns="http://www.w3.org/2000/svg">
<path d="M13.822 13.3334C15.2461 13.3334 16 12.5795 16 11.1562V4.32566C16 2.90236 15.2461 2.14197 13.822 2.14197H12.1788C11.6826 2.14197 11.5087 2.05749 11.1865 1.72603L10.6774 1.19311C10.3359 0.835663 9.98792 0.666687 9.33709 0.666687H6.63713C5.98631 0.666687 5.63834 0.835663 5.29682 1.19311L4.78776 1.72603C4.46557 2.05749 4.29158 2.14197 3.78896 2.14197H2.18445C0.760371 2.14197 0 2.90236 0 4.32566V11.1562C0 12.5795 0.760371 13.3334 2.18445 13.3334H13.822ZM8.00322 11.2212C6.08941 11.2212 4.54934 9.67438 4.54934 7.73116C4.54934 5.79444 6.08941 4.24117 8.00322 4.24117C9.91704 4.24117 11.4507 5.79444 11.4507 7.73116C11.4507 9.67438 9.91704 11.2212 8.00322 11.2212ZM12.7394 6.22988C12.2561 6.22988 11.8566 5.83994 11.8566 5.34601C11.8566 4.87158 12.2626 4.46214 12.7394 4.46214C13.2098 4.46214 13.6158 4.87158 13.6158 5.34601C13.6158 5.83344 13.2163 6.22338 12.7394 6.22988ZM8.00322 9.92785C9.20822 9.92785 10.1748 8.95299 10.1748 7.73116C10.1748 6.51584 9.20822 5.53448 8.00322 5.53448C6.79823 5.53448 5.83166 6.51584 5.83166 7.73116C5.83166 8.95299 6.80467 9.92785 8.00322 9.92785Z" fill="white"/>
</svg>
